<?xml version="1.0" encoding="UTF-8" standalone="no"?>
<svg viewBox="0 0 120 30" version="1.1" xmlns="http://www.w3.org/2000/svg" xmlns:xlink="http://www.w3.org/1999/xlink">
    <!-- Generator: Sketch 46.1 (44463) - http://www.bohemiancoding.com/sketch -->
    <title>media-lab-logo</title>
    <desc>Created with Sketch.</desc>
    <defs></defs>
    <style>
      <!-- CSS styles and media queries here -->
        svg * {
          transition: opacity .1s ease-out;
        }
          
        @media all and (max-width: 100px) {
          #Text, #Logo { 
            fill: #4C4D48; 
          }
        }
           
        @media all and (max-width: 130px) {
          #Text {
            opacity: 0;
           }
        }
    </style>
    <g id="Logo" stroke="none" stroke-width="1" fill="none" fill-rule="evenodd">
        <g id="media-lab-logo" fill="#4C4D48">
            <g id="Logo" transform="translate(84.000000, 0.000000)" fill-rule="nonzero">
                <path d="M24.6576822,0.823279091 L15.8424216,27.5805383 C15.645384,28.1786133 15.9701694,28.8232847 16.5678502,29.0204523 C17.165531,29.2176199 17.8097776,28.8926202 18.0068152,28.2945452 L26.8220758,1.53728604 C27.0191134,0.939211063 26.6943279,0.294539604 26.0966472,0.0973720301 C25.4989664,-0.0997955434 24.8547198,0.225204118 24.6576822,0.823279091 Z" id="Line-Copy-4"></path>
                <path d="M20.5099283,0.823279091 L11.6946677,27.5805383 C11.4976301,28.1786133 11.8224155,28.8232847 12.4200963,29.0204523 C13.0177771,29.2176199 13.6620237,28.8926202 13.8590613,28.2945452 L22.6743219,1.53728604 C22.8713595,0.939211063 22.5465741,0.294539604 21.9488933,0.0973720301 C21.3512125,-0.0997955434 20.7069659,0.225204118 20.5099283,0.823279091 Z" id="Line-Copy-10"></path>
                <path d="M20.5098326,1.53728604 L29.3250932,28.2945452 C29.5221308,28.8926202 30.1663773,29.2176199 30.7640581,29.0204523 C31.3617389,28.8232847 31.6865244,28.1786133 31.4894868,27.5805383 L22.6742262,0.823279091 C22.4771885,0.225204118 21.832942,-0.0997955434 21.2352612,0.0973720301 C20.6375804,0.294539604 20.3127949,0.939211063 20.5098326,1.53728604 Z" id="Line-Copy-5"></path>
                <path d="M24.6620494,1.53728604 L33.47731,28.2945452 C33.6743476,28.8926202 34.3185942,29.2176199 34.916275,29.0204523 C35.5139558,28.8232847 35.8387412,28.1786133 35.6417036,27.5805383 L26.826443,0.823279091 C26.6294054,0.225204118 25.9851588,-0.0997955434 25.387478,0.0973720301 C24.7897972,0.294539604 24.4650118,0.939211063 24.6620494,1.53728604 Z" id="Line-Copy-7"></path>
                <path d="M13.2248261,0.823279091 L4.40956554,27.5805383 C4.21252792,28.1786133 4.53731338,28.8232847 5.13499416,29.0204523 C5.73267495,29.2176199 6.37692152,28.8926202 6.57395914,28.2945452 L15.3892197,1.53728604 C15.5862574,0.939211063 15.2614719,0.294539604 14.6637911,0.0973720301 C14.0661103,-0.0997955434 13.4218638,0.225204118 13.2248261,0.823279091 Z" id="Line-Copy-4"></path>
                <path d="M9.06579027,0.823279091 L0.250529678,27.5805383 C0.0534920558,28.1786133 0.378277514,28.8232847 0.975958302,29.0204523 C1.57363909,29.2176199 2.21788565,28.8926202 2.41492328,28.2945452 L11.2301839,1.53728604 C11.4272215,0.939211063 11.102436,0.294539604 10.5047552,0.0973720301 C9.90707446,-0.0997955434 9.2628279,0.225204118 9.06579027,0.823279091 Z" id="Line-Copy-10"></path>
                <path d="M9.06223721,1.53728604 L17.8774978,28.2945452 C18.0745354,28.8926202 18.718782,29.2176199 19.3164628,29.0204523 C19.9141436,28.8232847 20.238929,28.1786133 20.0418914,27.5805383 L11.2266308,0.823279091 C11.0295932,0.225204118 10.3853466,-0.0997955434 9.78766583,0.0973720301 C9.18998504,0.294539604 8.86519959,0.939211063 9.06223721,1.53728604 Z" id="Line-Copy-5"></path>
                <path d="M13.2249992,1.53728604 L22.0402598,28.2945452 C22.2372974,28.8926202 22.8815439,29.2176199 23.4792247,29.0204523 C24.0769055,28.8232847 24.401691,28.1786133 24.2046533,27.5805383 L15.3893928,0.823279091 C15.1923551,0.225204118 14.5481086,-0.0997955434 13.9504278,0.0973720301 C13.352747,0.294539604 13.0279615,0.939211063 13.2249992,1.53728604 Z" id="Line-Copy-7"></path>
            </g>
            <g id="Text" transform="translate(0.000000, 2.000000)">
                <path d="M6.57835228,11.4581185 L6.57835228,1.31539015 L4.87970722,7.6626708 L3.56206666,7.6626708 L1.86342159,1.31539015 L1.86342159,11.4581185 L0.593406593,11.4581185 L0.593406593,0.152529574 L2.83180803,0.152529574 L4.2764501,5.93453078 L5.70521697,0.152529574 L7.89599285,0.152529574 L7.89599285,11.4581185 L6.57835228,11.4581185 Z M10.5947747,11.4581185 L10.5947747,0.152529574 L15.8018362,0.152529574 L15.8018362,1.33154099 L11.975916,1.33154099 L11.975916,5.03008366 L15.4049565,5.03008366 L15.4049565,6.20909508 L11.975916,6.20909508 L11.975916,10.2791071 L15.8018362,10.2791071 L15.8018362,11.4581185 L10.5947747,11.4581185 Z M22.6599172,5.74072068 C22.6599172,4.77166535 22.6202297,3.99104916 22.5408533,3.39884868 C22.461477,2.80664821 22.3477059,2.34904561 22.1995368,2.02602717 C22.0513676,1.70300873 21.8793882,1.48766633 21.6835932,1.37999352 C21.4877982,1.2723207 21.2681937,1.2184851 21.0247729,1.2184851 C20.8766038,1.2184851 20.7152076,1.22117688 20.5405797,1.22656052 C20.3659518,1.23194416 20.199264,1.2400195 20.0405113,1.25078679 C19.8500081,1.26155407 19.6647994,1.27232119 19.4848797,1.28308847 L19.4848797,10.3275596 C19.6436324,10.3383269 19.812966,10.349094 19.9928857,10.3598613 C20.1410549,10.3706286 20.3050968,10.3787039 20.4850165,10.3840876 C20.6649362,10.3894712 20.8395615,10.392163 21.0088977,10.392163 C21.2523185,10.392163 21.4772147,10.3167931 21.6835932,10.1660512 C21.8899717,10.0153093 22.064597,9.75959017 22.2074744,9.39888624 C22.3503518,9.03818232 22.461477,8.55904548 22.5408533,7.96146136 C22.6202297,7.36387725 22.6599172,6.62363775 22.6599172,5.74072068 Z M24.0728089,5.62766479 C24.0728089,6.83360031 24.006663,7.82148356 23.8743691,8.59134418 C23.7420752,9.3612048 23.5409915,9.96685529 23.2711119,10.4083138 C23.0012324,10.8497724 22.665211,11.1539435 22.2630375,11.3208364 C21.8608641,11.4877292 21.3951966,11.5711744 20.866021,11.5711744 C20.5590992,11.5711744 20.2442445,11.5684826 19.9214474,11.563099 C19.5986503,11.5577153 19.2996706,11.5442564 19.0244993,11.5227219 C18.706994,11.5011873 18.4000767,11.4796531 18.1037384,11.4581185 L18.1037384,0.152529574 C18.3894932,0.130995011 18.6805354,0.109460771 18.9768737,0.0879262082 C19.230878,0.0663916454 19.508691,0.0529327456 19.8103211,0.0475491049 C20.1119511,0.0421654642 20.4003475,0.0394736842 20.6755188,0.0394736842 C21.2364449,0.0394736842 21.7285708,0.106768184 22.1519112,0.241359201 C22.5752517,0.375950219 22.929794,0.645128216 23.2155488,1.04890127 C23.5013036,1.45267432 23.7156165,2.01794812 23.8584939,2.74473961 C24.0013713,3.4715311 24.0728089,4.43249655 24.0728089,5.62766479 Z M25.8190795,11.4581185 L25.8190795,10.2791071 L26.9303427,10.2791071 L26.9303427,1.33154099 L25.8190795,1.33154099 L25.8190795,0.152529574 L29.4227471,0.152529574 L29.4227471,1.33154099 L28.311484,1.33154099 L28.311484,10.2791071 L29.4227471,10.2791071 L29.4227471,11.4581185 L25.8190795,11.4581185 Z M34.1059274,1.2184851 L32.8200372,7.3881065 L35.4076928,7.3881065 L34.1059274,1.2184851 Z M36.2649529,11.4581185 L35.6616958,8.5994196 L32.5660342,8.5994196 L31.9469019,11.4581185 L30.5340102,11.4581185 L33.2169169,0.152529574 L35.0425635,0.152529574 L37.6778446,11.4581185 L36.2649529,11.4581185 Z M43.551664,11.4581185 L43.551664,0.152529574 L44.9328053,0.152529574 L44.9328053,10.2306546 L48.4729721,10.2306546 L48.4729721,11.4581185 L43.551664,11.4581185 Z M52.6798968,1.2184851 L51.3940066,7.3881065 L53.9816622,7.3881065 L52.6798968,1.2184851 Z M54.8389223,11.4581185 L54.2356652,8.5994196 L51.1400036,8.5994196 L50.5208713,11.4581185 L49.1079796,11.4581185 L51.7908863,0.152529574 L53.6165329,0.152529574 L56.251814,11.4581185 L54.8389223,11.4581185 Z M62.4113867,8.16334688 C62.4113867,7.45270631 62.2976157,6.93050099 62.0700702,6.59671527 C61.8425247,6.26292955 61.4377115,6.09603919 60.8556184,6.09603919 L59.3792259,6.09603919 L59.3792259,10.3114088 C59.5273951,10.3221761 59.6861454,10.3329432 59.8554816,10.3437105 C60.0036507,10.3544777 60.162401,10.3652449 60.3317372,10.3760121 C60.5010734,10.3867794 60.670407,10.392163 60.8397432,10.392163 C61.0514134,10.392163 61.2524971,10.3652452 61.4430003,10.3114088 C61.6335035,10.2575724 61.8001913,10.1499012 61.9430687,9.98839195 C62.0859461,9.82688273 62.1997172,9.60077321 62.2843852,9.31005662 C62.3690533,9.01934002 62.4113867,8.63710726 62.4113867,8.16334688 Z M62.1732589,3.10813354 C62.1732589,2.44056209 62.0753629,1.9560417 61.879568,1.65455782 C61.683773,1.35307394 61.2895431,1.20233426 60.6968665,1.20233426 C60.3158601,1.20233426 60.0036512,1.21848494 59.7602304,1.25078679 C59.6226448,1.27232135 59.4956446,1.28847203 59.3792259,1.29923931 L59.3792259,4.93317861 L60.6968665,4.93317861 C60.8556192,4.93317861 61.022307,4.91702793 61.1969349,4.88472609 C61.3715628,4.85242424 61.5303131,4.7770544 61.6731905,4.65861431 C61.8160679,4.54017421 61.9351306,4.35982496 62.0303822,4.11756112 C62.1256338,3.87529729 62.1732589,3.5388248 62.1732589,3.10813354 Z M63.8242784,8.05029099 C63.8242784,8.72862972 63.750195,9.29121173 63.6020258,9.73805391 C63.4538567,10.1848961 63.2448354,10.5455946 62.9749559,10.8201603 C62.7050764,11.094726 62.3769924,11.2885341 61.9906943,11.4015906 C61.6043961,11.514647 61.1731245,11.5711744 60.6968665,11.5711744 C60.3581941,11.5711744 60.0301102,11.5684826 59.7126049,11.563099 C59.3950995,11.5577153 59.109349,11.5442564 58.8553447,11.5227219 C58.5590064,11.5011873 58.2732559,11.4796531 57.9980846,11.4581185 L57.9980846,0.152529574 C58.2944229,0.130995011 58.5854651,0.109460771 58.8712199,0.0879262082 C59.1146407,0.0663916454 59.3845162,0.0529327456 59.6808545,0.0475491049 C59.9771928,0.0421654642 60.25236,0.0394736842 60.5063642,0.0394736842 C60.9826223,0.0394736842 61.4086022,0.0906175037 61.7843168,0.192906677 C62.1600315,0.29519585 62.4801779,0.464777989 62.7447657,0.701658179 C63.0093535,0.93853837 63.2104372,1.24540129 63.3480228,1.62225614 C63.4856085,1.99911099 63.5544002,2.45671358 63.5544002,2.99507765 C63.5544002,3.67341638 63.4221083,4.21446415 63.1575206,4.61823721 C62.8929328,5.02201026 62.6018906,5.29388004 62.2843852,5.43385469 C62.4431379,5.4876911 62.6124716,5.57113628 62.7923912,5.68419273 C62.9723109,5.79724919 63.1389987,5.95337243 63.2924597,6.15256713 C63.4459206,6.35176184 63.5729208,6.60478916 63.6734642,6.91165668 C63.7740075,7.2185242 63.8242784,7.59806517 63.8242784,8.05029099 Z M6.57835228,26.8014178 L6.57835228,16.6586894 L4.87970722,23.0059701 L3.56206666,23.0059701 L1.86342159,16.6586894 L1.86342159,26.8014178 L0.593406593,26.8014178 L0.593406593,15.4958289 L2.83180803,15.4958289 L4.2764501,21.2778301 L5.70521697,15.4958289 L7.89599285,15.4958289 L7.89599285,26.8014178 L6.57835228,26.8014178 Z M10.5947747,26.8014178 L10.5947747,15.4958289 L15.8018362,15.4958289 L15.8018362,16.6748403 L11.975916,16.6748403 L11.975916,20.3733829 L15.4049565,20.3733829 L15.4049565,21.5523944 L11.975916,21.5523944 L11.975916,25.6224064 L15.8018362,25.6224064 L15.8018362,26.8014178 L10.5947747,26.8014178 Z M18.1037384,26.8014178 L18.1037384,15.4958289 L19.4848797,15.4958289 L19.4848797,25.5739539 L23.0250465,25.5739539 L23.0250465,26.8014178 L18.1037384,26.8014178 Z M29.0258674,23.5066462 C29.0258674,22.7960056 28.9120964,22.2738003 28.6845509,21.9400145 C28.4570054,21.6062288 28.0521922,21.4393385 27.470099,21.4393385 L25.9937066,21.4393385 L25.9937066,25.6547081 C26.1418758,25.6654753 26.300626,25.6762425 26.4699622,25.6870097 C26.6181314,25.697777 26.7768817,25.7085441 26.9462179,25.7193114 C27.115554,25.7300787 27.2848877,25.7354623 27.4542239,25.7354623 C27.6658941,25.7354623 27.8669778,25.7085445 28.057481,25.6547081 C28.2479842,25.6008717 28.414672,25.4932005 28.5575494,25.3316912 C28.7004268,25.170182 28.8141978,24.9440725 28.8988659,24.6533559 C28.983534,24.3626393 29.0258674,23.9804065 29.0258674,23.5066462 Z M28.7877396,18.4514328 C28.7877396,17.7838614 28.6898436,17.299341 28.4940486,16.9978571 C28.2982537,16.6963732 27.9040238,16.5456335 27.3113472,16.5456335 C26.9303408,16.5456335 26.6181319,16.5617842 26.3747111,16.5940861 C26.2371255,16.6156206 26.1101252,16.6317713 25.9937066,16.6425386 L25.9937066,20.2764779 L27.3113472,20.2764779 C27.4700998,20.2764779 27.6367876,20.2603272 27.8114156,20.2280254 C27.9860435,20.1957235 28.1447938,20.1203537 28.2876712,20.0019136 C28.4305486,19.8834735 28.5496113,19.7031242 28.6448629,19.4608604 C28.7401145,19.2185966 28.7877396,18.8821241 28.7877396,18.4514328 Z M30.4387591,23.3935903 C30.4387591,24.071929 30.3646756,24.634511 30.2165065,25.0813532 C30.0683373,25.5281954 29.8593161,25.8888939 29.5894366,26.1634596 C29.319557,26.4380252 28.9914731,26.6318334 28.6051749,26.7448899 C28.2188768,26.8579463 27.7876052,26.9144737 27.3113472,26.9144737 C26.9726748,26.9144737 26.6445909,26.9117819 26.3270855,26.9063983 C26.0095802,26.9010146 25.7238297,26.8875557 25.4698254,26.8660212 C25.1734871,26.8444866 24.8877366,26.8229524 24.6125653,26.8014178 L24.6125653,15.4958289 C24.9089036,15.4742943 25.1999458,15.45276 25.4857006,15.4312255 C25.7291214,15.4096909 25.9989969,15.396232 26.2953352,15.3908484 C26.5916735,15.3854647 26.8668406,15.382773 27.1208449,15.382773 C27.5971029,15.382773 28.0230829,15.4339168 28.3987975,15.536206 C28.7745122,15.6384951 29.0946586,15.8080773 29.3592464,16.0449575 C29.6238341,16.2818376 29.8249178,16.5887006 29.9625035,16.9655554 C30.1000891,17.3424103 30.1688809,17.8000129 30.1688809,18.3383769 C30.1688809,19.0167157 30.036589,19.5577634 29.7720012,19.9615365 C29.5074134,20.3653095 29.2163713,20.6371793 28.8988659,20.777154 C29.0576186,20.8309904 29.2269522,20.9144356 29.4068719,21.027492 C29.5867916,21.1405485 29.7534794,21.2966717 29.9069403,21.4958664 C30.0604012,21.6950611 30.1874015,21.9480884 30.2879448,22.254956 C30.3884882,22.5618235 30.4387591,22.9413645 30.4387591,23.3935903 Z M37.6460942,21.1001708 C37.6460942,20.2064864 37.6143442,19.4689387 37.5508431,18.8875055 C37.487342,18.3060723 37.3815085,17.8430862 37.2333394,17.4985332 C37.0851702,17.1539802 36.8893782,16.91172 36.6459574,16.7717453 C36.4025367,16.6317707 36.1009111,16.5617844 35.7410717,16.5617844 C35.3812324,16.5617844 35.0796068,16.6317707 34.836186,16.7717453 C34.5927653,16.91172 34.3969733,17.1539802 34.2488041,17.4985332 C34.100635,17.8430862 33.9948014,18.3060723 33.9313004,18.8875055 C33.8677993,19.4689387 33.8360492,20.2064864 33.8360492,21.1001708 C33.8360492,21.9723206 33.8677993,22.701793 33.9313004,23.2886098 C33.9948014,23.8754266 34.100635,24.3518717 34.2488041,24.7179593 C34.3969733,25.0840468 34.5927653,25.3451495 34.836186,25.5012751 C35.0796068,25.6574006 35.3812324,25.7354623 35.7410717,25.7354623 C36.1009111,25.7354623 36.4025367,25.6574006 36.6459574,25.5012751 C36.8893782,25.3451495 37.0851702,25.0840468 37.2333394,24.7179593 C37.3815085,24.3518717 37.487342,23.8754266 37.5508431,23.2886098 C37.6143442,22.701793 37.6460942,21.9723206 37.6460942,21.1001708 Z M39.0589859,21.0194166 C39.0589859,22.0100065 39.008715,22.8740679 38.9081716,23.6116266 C38.8076283,24.3491854 38.633003,24.9629112 38.3842905,25.4528225 C38.1355779,25.9427338 37.7969107,26.3088159 37.3682785,26.5510798 C36.9396462,26.7933436 36.3972494,26.9144737 35.7410717,26.9144737 C35.084894,26.9144737 34.5424972,26.7933436 34.113865,26.5510798 C33.6852328,26.3088159 33.3465655,25.9427338 33.097853,25.4528225 C32.8491405,24.9629112 32.6745152,24.3491854 32.5739718,23.6116266 C32.4734285,22.8740679 32.4231575,22.0100065 32.4231575,21.0194166 C32.4231575,20.0718958 32.4734285,19.2455194 32.5739718,18.5402624 C32.6745152,17.8350055 32.8491405,17.2481975 33.097853,16.7798207 C33.3465655,16.311444 33.6852328,15.9615126 34.113865,15.7300161 C34.5424972,15.4985195 35.084894,15.382773 35.7410717,15.382773 C36.3972494,15.382773 36.9396462,15.4985195 37.3682785,15.7300161 C37.7969107,15.9615126 38.1355779,16.311444 38.3842905,16.7798207 C38.633003,17.2481975 38.8076283,17.8350055 38.9081716,18.5402624 C39.008715,19.2455194 39.0589859,20.0718958 39.0589859,21.0194166 Z M47.3140834,23.8135121 C47.3140834,24.9010076 47.0468538,25.6896991 46.5123865,26.1796104 C45.9779191,26.6695217 45.2556053,26.9144737 44.3454234,26.9144737 C43.4352414,26.9144737 42.7102817,26.6695217 42.1705227,26.1796104 C41.6307636,25.6896991 41.3608881,24.9010076 41.3608881,23.8135121 L41.3608881,15.4958289 L42.7420294,15.4958289 L42.7420294,24.1203781 C42.7420294,24.691044 42.8901964,25.1028864 43.1865347,25.3559175 C43.482873,25.6089486 43.8691654,25.7354623 44.3454234,25.7354623 C44.8216814,25.7354623 45.2053279,25.6089486 45.4963745,25.3559175 C45.787421,25.1028864 45.9329421,24.691044 45.9329421,24.1203781 L45.9329421,15.4958289 L47.3140834,15.4958289 L47.3140834,23.8135121 Z M55.6961824,18.6775446 C55.6961824,19.5173925 55.5744739,20.2064882 55.3310531,20.7448523 C55.0876324,21.2832164 54.6801733,21.6654491 54.1086637,21.891562 L56.2835644,26.8014178 L54.7595464,26.8014178 L52.7275224,22.1176738 L51.3146307,22.1176738 L51.3146307,26.8014178 L49.9334894,26.8014178 L49.9334894,15.4958289 C50.1980771,15.4742943 50.478536,15.45276 50.7748743,15.4312255 C51.0288786,15.4096909 51.3172749,15.396232 51.640072,15.3908484 C51.9628691,15.3854647 52.2883072,15.382773 52.6163961,15.382773 C53.2196562,15.382773 53.7197196,15.4608346 54.1166013,15.6169602 C54.5134829,15.7730857 54.8283377,15.9965035 55.0611749,16.2872201 C55.2940122,16.5779367 55.4580541,16.9251763 55.5533057,17.3289493 C55.6485573,17.7327224 55.6961824,18.1822497 55.6961824,18.6775446 Z M54.2832907,18.7906005 C54.2832907,18.0045889 54.1774572,17.4339316 53.965787,17.0786113 C53.7541168,16.723291 53.3678244,16.5456335 52.8068983,16.5456335 C52.3623908,16.5456335 52.0025568,16.5617842 51.7273856,16.5940861 C51.5686329,16.6156206 51.4310493,16.6317713 51.3146307,16.6425386 L51.3146307,20.9386624 L52.8068983,20.9386624 C53.029152,20.9386624 53.2302357,20.9090528 53.4101554,20.8498328 C53.5900751,20.7906127 53.7461796,20.6829415 53.8784735,20.5268159 C54.0107674,20.3706904 54.1113092,20.1526562 54.180102,19.8727069 C54.2488948,19.5927575 54.2832907,19.232059 54.2832907,18.7906005 Z M61.8240048,26.8014178 L59.3951011,16.6909911 L59.3951011,26.8014178 L58.1092109,26.8014178 L58.1092109,15.4958289 L60.3634876,15.4958289 L62.8082664,25.6062555 L62.8082664,15.4958289 L64.0941566,15.4958289 L64.0941566,26.8014178 L61.8240048,26.8014178 Z M66.7929385,26.8014178 L66.7929385,15.4958289 L72,15.4958289 L72,16.6748403 L68.1740798,16.6748403 L68.1740798,20.3733829 L71.6031203,20.3733829 L71.6031203,21.5523944 L68.1740798,21.5523944 L68.1740798,25.6224064 L72,25.6224064 L72,26.8014178 L66.7929385,26.8014178 Z" id="MEDIA-LAB-MELBOURNE"></path>
            </g>
        </g>
    </g>
</svg>