<?xml version="1.0" encoding="UTF-8" standalone="no"?>
<svg width="32px" height="26px" viewBox="0 0 32 26" version="1.1" xmlns="http://www.w3.org/2000/svg" xmlns:xlink="http://www.w3.org/1999/xlink">
    <!-- Generator: Sketch 45.1 (43504) - http://www.bohemiancoding.com/sketch -->
    <title>Group</title>
    <desc>Created with Sketch.</desc>
    <defs></defs>
    <g id="Page-2" stroke="none" stroke-width="1" fill="none" fill-rule="evenodd">
        <g id="Home" transform="translate(-174.000000, -80.000000)" fill-rule="nonzero" fill="#FFFFFF">
            <g id="Group" transform="translate(174.000000, 80.000000)">
                <path d="M21.4127021,0.697409517 L13.5895788,24.5132286 C13.4147173,25.0455568 13.7029489,25.6193592 14.2333621,25.794852 C14.7637753,25.9703449 15.3355134,25.6810726 15.5103749,25.1487443 L23.3334981,1.33292529 C23.5083596,0.800597023 23.220128,0.226794651 22.6897148,0.0513018168 C22.1593016,-0.124191017 21.5875635,0.165081253 21.4127021,0.697409517 Z" id="Line-Copy-4"></path>
                <path d="M17.7203944,0.697409517 L9.8972711,24.5132286 C9.72240961,25.0455568 10.0106412,25.6193592 10.5410544,25.794852 C11.0714676,25.9703449 11.6432057,25.6810726 11.8180672,25.1487443 L19.6411904,1.33292529 C19.8160519,0.800597023 19.5278203,0.226794651 18.9974071,0.0513018168 C18.4669939,-0.124191017 17.8952559,0.165081253 17.7203944,0.697409517 Z" id="Line-Copy-10"></path>
                <path d="M18.5126557,1.33292529 L26.335779,25.1487443 C26.5106405,25.6810726 27.0823786,25.9703449 27.6127918,25.794852 C28.1432049,25.6193592 28.4314365,25.0455568 28.2565751,24.5132286 L20.4334518,0.697409517 C20.2585903,0.165081253 19.6868522,-0.124191017 19.156439,0.0513018168 C18.6260258,0.226794651 18.3377942,0.800597023 18.5126557,1.33292529 Z" id="Line-Copy-5"></path>
                <path d="M22.2049634,1.33292529 L30.0280867,25.1487443 C30.2029482,25.6810726 30.7746863,25.9703449 31.3050994,25.794852 C31.8355126,25.6193592 32.1237442,25.0455568 31.9488827,24.5132286 L24.1257595,0.697409517 C23.950898,0.165081253 23.3791599,-0.124191017 22.8487467,0.0513018168 C22.3183335,0.226794651 22.0301019,0.800597023 22.2049634,1.33292529 Z" id="Line-Copy-7"></path>
                <path d="M11.5665482,0.697409517 L3.74342495,24.5132286 C3.56856346,25.0455568 3.85679506,25.6193592 4.38720825,25.794852 C4.91762144,25.9703449 5.48935953,25.6810726 5.66422102,25.1487443 L13.4873443,1.33292529 C13.6622058,0.800597023 13.3739742,0.226794651 12.843561,0.0513018168 C12.3131478,-0.124191017 11.7414097,0.165081253 11.5665482,0.697409517 Z" id="Line-Copy-4"></path>
                <path d="M7.87424052,0.697409517 L0.0511172562,24.5132286 C-0.123744235,25.0455568 0.164487366,25.6193592 0.694900555,25.794852 C1.22531374,25.9703449 1.79705184,25.6810726 1.97191333,25.1487443 L9.79503659,1.33292529 C9.96989808,0.800597023 9.68166648,0.226794651 9.15125329,0.0513018168 C8.6208401,-0.124191017 8.04910201,0.165081253 7.87424052,0.697409517 Z" id="Line-Copy-10"></path>
                <path d="M8.66650187,1.33292529 L16.4896251,25.1487443 C16.6644866,25.6810726 17.2362247,25.9703449 17.7666379,25.794852 C18.2970511,25.6193592 18.5852827,25.0455568 18.4104212,24.5132286 L10.5872979,0.697409517 C10.4124365,0.165081253 9.84069836,-0.124191017 9.31028517,0.0513018168 C8.77987198,0.226794651 8.49164038,0.800597023 8.66650187,1.33292529 Z" id="Line-Copy-5"></path>
                <path d="M12.3588096,1.33292529 L20.1819328,25.1487443 C20.3567943,25.6810726 20.9285324,25.9703449 21.4589456,25.794852 C21.9893588,25.6193592 22.2775904,25.0455568 22.1027289,24.5132286 L14.2796056,0.697409517 C14.1047441,0.165081253 13.5330061,-0.124191017 13.0025929,0.0513018168 C12.4721797,0.226794651 12.1839481,0.800597023 12.3588096,1.33292529 Z" id="Line-Copy-7"></path>
                <path d="M21.4127021,0.697409517 L13.5895788,24.5132286 C13.4147173,25.0455568 13.7029489,25.6193592 14.2333621,25.794852 C14.7637753,25.9703449 15.3355134,25.6810726 15.5103749,25.1487443 L23.3334981,1.33292529 C23.5083596,0.800597023 23.220128,0.226794651 22.6897148,0.0513018168 C22.1593016,-0.124191017 21.5875635,0.165081253 21.4127021,0.697409517 Z" id="Line-Copy-4"></path>
                <path d="M17.7203944,0.697409517 L9.8972711,24.5132286 C9.72240961,25.0455568 10.0106412,25.6193592 10.5410544,25.794852 C11.0714676,25.9703449 11.6432057,25.6810726 11.8180672,25.1487443 L19.6411904,1.33292529 C19.8160519,0.800597023 19.5278203,0.226794651 18.9974071,0.0513018168 C18.4669939,-0.124191017 17.8952559,0.165081253 17.7203944,0.697409517 Z" id="Line-Copy-10"></path>
                <path d="M18.5126557,1.33292529 L26.335779,25.1487443 C26.5106405,25.6810726 27.0823786,25.9703449 27.6127918,25.794852 C28.1432049,25.6193592 28.4314365,25.0455568 28.2565751,24.5132286 L20.4334518,0.697409517 C20.2585903,0.165081253 19.6868522,-0.124191017 19.156439,0.0513018168 C18.6260258,0.226794651 18.3377942,0.800597023 18.5126557,1.33292529 Z" id="Line-Copy-5"></path>
                <path d="M22.2049634,1.33292529 L30.0280867,25.1487443 C30.2029482,25.6810726 30.7746863,25.9703449 31.3050994,25.794852 C31.8355126,25.6193592 32.1237442,25.0455568 31.9488827,24.5132286 L24.1257595,0.697409517 C23.950898,0.165081253 23.3791599,-0.124191017 22.8487467,0.0513018168 C22.3183335,0.226794651 22.0301019,0.800597023 22.2049634,1.33292529 Z" id="Line-Copy-7"></path>
                <path d="M11.5665482,0.697409517 L3.74342495,24.5132286 C3.56856346,25.0455568 3.85679506,25.6193592 4.38720825,25.794852 C4.91762144,25.9703449 5.48935953,25.6810726 5.66422102,25.1487443 L13.4873443,1.33292529 C13.6622058,0.800597023 13.3739742,0.226794651 12.843561,0.0513018168 C12.3131478,-0.124191017 11.7414097,0.165081253 11.5665482,0.697409517 Z" id="Line-Copy-4"></path>
                <path d="M7.87424052,0.697409517 L0.0511172562,24.5132286 C-0.123744235,25.0455568 0.164487366,25.6193592 0.694900555,25.794852 C1.22531374,25.9703449 1.79705184,25.6810726 1.97191333,25.1487443 L9.79503659,1.33292529 C9.96989808,0.800597023 9.68166648,0.226794651 9.15125329,0.0513018168 C8.6208401,-0.124191017 8.04910201,0.165081253 7.87424052,0.697409517 Z" id="Line-Copy-10"></path>
                <path d="M8.66650187,1.33292529 L16.4896251,25.1487443 C16.6644866,25.6810726 17.2362247,25.9703449 17.7666379,25.794852 C18.2970511,25.6193592 18.5852827,25.0455568 18.4104212,24.5132286 L10.5872979,0.697409517 C10.4124365,0.165081253 9.84069836,-0.124191017 9.31028517,0.0513018168 C8.77987198,0.226794651 8.49164038,0.800597023 8.66650187,1.33292529 Z" id="Line-Copy-5"></path>
                <path d="M12.3588096,1.33292529 L20.1819328,25.1487443 C20.3567943,25.6810726 20.9285324,25.9703449 21.4589456,25.794852 C21.9893588,25.6193592 22.2775904,25.0455568 22.1027289,24.5132286 L14.2796056,0.697409517 C14.1047441,0.165081253 13.5330061,-0.124191017 13.0025929,0.0513018168 C12.4721797,0.226794651 12.1839481,0.800597023 12.3588096,1.33292529 Z" id="Line-Copy-7"></path>
            </g>
        </g>
    </g>
</svg>